{"title":"Elementary S02E20 HDTV x264 AAC E-Subs [GWC].mp4","uid":9939194,"size":125370534,"categoryP":"video","categoryS":"tv_shows","magnet":"?xt=urn:btih:b95a24d7e88415ff8d78518dfac9c6340aeb34b5&amp;dn=Elementary+S02E20+HDTV+x264+AAC+E-Subs+%5BGWC%5D.mp4&amp;tr=udp%3A%2F%2Ftracker.openbittorrent.com%3A80&amp;tr=udp%3A%2F%2Fopen.demonii.com%3A1337&amp;tr=udp%3A%2F%2Ftracker.coppersurfer.tk%3A6969&amp;tr=udp%3A%2F%2Fexodus.desync.com%3A6969","seeders":7,"leechers":0,"uploader":"canc232","files":1,"time":1397204625,"description":"Elementary S02E20 HDTV x264 AAC E-Subs [GWC]\n\n\nSTORYLINE :\nA modern take on the cases of Sherlock Holmes, with the detective now living in New York City.\n\n\nSCREENS : &lt;a href=&quot;\nhttp://i.imgur.com/lBXjr6c.jpg&quot; rel=&quot;nofollow&quot; target=&quot;_NEW&quot;&gt;\nhttp://i.imgur.com/lBXjr6c.jpg&lt;/a&gt; &lt;a href=&quot;\nhttp://i.imgur.com/AZAxYtj.jpg&quot; rel=&quot;nofollow&quot; target=&quot;_NEW&quot;&gt;\nhttp://i.imgur.com/AZAxYtj.jpg&lt;/a&gt; &lt;a href=&quot;\nhttp://i.imgur.com/c7yMhse.jpg&quot; rel=&quot;nofollow&quot; target=&quot;_NEW&quot;&gt;\nhttp://i.imgur.com/c7yMhse.jpg&lt;/a&gt;\n\n\nMEDIA INFO :\nGeneral \nFormat : MPEG-4 \nFormat profile : Base Media \nFile size : 120 MiB \nDuration : 42mn 4s \nOverall bit rate mode : Variable \nOverall bit rate : 397 Kbps \n\nVideo \nFormat : AVC \nFormat profile : &lt;a class=&quot;__cf_email__&quot; href=&quot;/cdn-cgi/l/email-protection&quot; data-cfemail=&quot;347c5d535c7478071a04&quot;&gt;[email&amp;#160;protected]&lt;/a&gt;&lt;script cf-hash='f9e31' type=&quot;text/javascript&quot;&gt;\n/* &lt;![CDATA[ */!function(){try{var t=&quot;currentScript&quot;in document?document.currentScript:function(){for(var t=document.getElementsByTagName(&quot;script&quot;),e=t.length;e--;)if(t[e].getAttribute(&quot;cf-hash&quot;))return t[e]}();if(t&amp;&amp;t.previousSibling){var e,r,n,i,c=t.previousSibling,a=c.getAttribute(&quot;data-cfemail&quot;);if(a){for(e=&quot;&quot;,r=parseInt(a.substr(0,2),16),n=2;a.length-n;n+=2)i=parseInt(a.substr(n,2),16)^r,e+=String.fromCharCode(i);e=document.createTextNode(e),c.parentNode.replaceChild(e,c)}}}catch(u){}}();/* ]]&gt; */&lt;/script&gt; \nFormat settings, CABAC : Yes \nFormat settings, ReFrames : 4 frames \nDuration : 42mn 4s \nBit rate : 334 Kbps \nMaximum bit rate : 1 426 Kbps \nWidth : 720 pixels \nHeight : 404 pixels \nFrame rate mode : Constant \nFrame rate : 23.976 fps  \nStream size : 101 MiB (84%) \nTitle : Elementary S02E20 HDTV x264 AAC E-Subs [GWC] \nWriting library : x264 core \n\nAudio \nID : 2 \nFormat : AAC \nFormat profile : HE-AAC / LC \nDuration : 42mn 4s \nBit rate mode : Variable \nChannel(s) : 2 channels \nSampling rate : 48.0 KHz / 24.0 KHz \nStream size : 18.0 MiB (15%) \nLanguage : English \n\nText \nFormat : Timed Text \nTitle : English Subtitle by elderman \nLanguage : English \n","torrent":{"xt":"urn:btih:b95a24d7e88415ff8d78518dfac9c6340aeb34b5","amp;dn":"Elementary+S02E20+HDTV+x264+AAC+E-Subs+%5BGWC%5D.mp4","amp;tr":["udp%3A%2F%2Ftracker.openbittorrent.com%3A80","udp%3A%2F%2Fopen.demonii.com%3A1337","udp%3A%2F%2Ftracker.coppersurfer.tk%3A6969","udp%3A%2F%2Fexodus.desync.com%3A6969"],"infoHash":"b95a24d7e88415ff8d78518dfac9c6340aeb34b5","infoHashBuffer":{"type":"Buffer","data":[185,90,36,215,232,132,21,255,141,120,81,141,250,201,198,52,10,235,52,181]},"announce":[],"urlList":[]}}